<svg width="536" height="100" viewBox="0 0 536 100" version="1.1" xmlns="http://www.w3.org/2000/svg" xmlns:xlink="http://www.w3.org/1999/xlink">
<title>Union</title>
<desc>Created using Figma</desc>
<g id="Canvas" transform="translate(-679 -1033)">
<g id="Union" filter="url(#filter0_d)">
<use xlink:href="#path0_fill" transform="translate(683 1033)" fill="#E0E0E0"/>
</g>
</g>
<defs>
<filter id="filter0_d" filterUnits="userSpaceOnUse" x="679" y="1033" width="536" height="100" color-interpolation-filters="sRGB">
<feFlood flood-opacity="0" result="BackgroundImageFix"/>
<feColorMatrix in="SourceAlpha" type="matrix" values="0 0 0 0 0 0 0 0 0 0 0 0 0 0 0 0 0 0 255 0"/>
<feOffset dx="0" dy="4"/>
<feGaussianBlur stdDeviation="2"/>
<feColorMatrix type="matrix" values="0 0 0 0 0 0 0 0 0 0 0 0 0 0 0 0 0 0 0.25 0"/>
<feBlend mode="normal" in2="BackgroundImageFix" result="effect1_dropShadow"/>
<feBlend mode="normal" in="SourceGraphic" in2="effect1_dropShadow" result="shape"/>
</filter>
<path id="path0_fill" fill-rule="evenodd" d="M 74.3121 72.1438L 146.17 0L 156 9.86963L 74.1954 92L 64.4825 82.2484L 64.481 82.25L 36.78 54.4387L 46.7286 44.4504L 74.3121 72.1438ZM 64.3651 43.3578L 107.421 0.130127L 117.252 9.99963L 74.1954 53.2273L 64.3651 43.3578ZM 9.83038 44.3119L 46.6231 81.2512L 36.7927 91.1207L 0 54.1814L 9.83038 44.3119ZM 214.23 22.2201L 214.23 88.3301L 203.12 88.3301L 203.12 22.2201L 179.8 22.2201L 179.8 11.0001L 237.44 11.0001L 237.44 22.2201L 214.23 22.2201ZM 271.449 54.8901L 261.989 27.7201L 252.309 54.8901L 271.449 54.8901ZM 296.859 88.0001L 284.979 88.0001L 275.739 65.3401L 248.129 65.3401C 245.159 72.3801 241.309 81.6201 238.889 88.0001L 226.899 88.0001L 257.809 10.0101L 265.949 10.0101L 296.859 88.0001ZM 323.715 10.2301C 335.595 10.2301 347.915 16.3901 349.895 30.4701L 338.895 30.9102C 337.355 23.9801 329.875 21.0101 323.165 21.1201C 317.995 21.2301 312.275 22.9901 309.195 26.9501C 307.655 28.9302 307.105 31.4601 307.325 34.1001C 307.875 42.0201 316.565 43.0101 324.815 43.7802C 335.375 45.1001 348.465 47.8501 351.435 60.1702C 351.765 61.8201 351.985 63.6901 351.985 65.2301C 351.985 80.0801 337.245 88.6602 323.385 88.6602C 311.505 88.6602 297.095 81.6201 295.665 67.8701L 295.555 65.7802L 306.775 65.5602L 306.885 67.2101L 306.885 66.7701C 307.655 73.9202 316.345 77.6602 323.495 77.6602C 331.745 77.6602 340.765 73.0402 340.765 65.1201C 340.765 64.3501 340.655 63.4701 340.435 62.4801C 339.115 56.6501 331.195 55.6602 323.495 54.8901C 311.505 53.6802 297.425 51.0402 296.215 34.9801L 296.215 35.0901C 295.775 29.9202 297.095 24.7501 300.395 20.4601C 305.565 13.7501 314.805 10.2301 323.715 10.2301ZM 360.257 88.0001L 360.257 11.1101L 371.257 11.1101L 371.257 88.0001L 360.257 88.0001ZM 402.717 88.0001L 373.347 52.3601L 373.347 46.7501L 400.187 11.1101L 414.157 11.1101L 384.787 49.2802L 417.237 88.0001L 402.717 88.0001ZM 463.59 55.1101L 428.72 55.1101L 428.72 76.8901L 464.47 76.8901L 464.47 88.0001L 417.5 88.0001L 417.5 11.1101L 464.36 11.1101L 464.36 22.2201L 428.72 22.2201L 428.72 43.8901L 463.59 43.8901L 463.59 55.1101ZM 512.625 88.0001L 484.575 54.2301L 484.575 48.9501L 497.555 48.9501C 506.905 48.9501 511.525 42.2401 511.525 35.5302C 511.525 28.9302 506.905 22.2201 497.555 22.2201L 480.505 22.2201L 480.505 88.0001L 469.505 88.0001L 469.505 11.0001L 497.555 11.0001C 514.275 11.0001 522.635 23.3201 522.635 35.5302C 522.635 46.4202 515.925 56.7601 502.725 59.0701L 527.035 88.0001L 512.625 88.0001Z"/>
</defs>
</svg>
